<svg xmlns="http://www.w3.org/2000/svg" viewBox="0 0 500 500" version="1.1" class="injected-svg site-scl__img inject-me site-scl__img--theme svg-fill-none">
	<path d="M 266.330 2.481 C 223.578 10.238, 187.935 41.247, 174.016 82.793 C 168.890 98.094, 168 106.261, 168 138.020 L 168 166.779 157.250 167.161 C 147.684 167.501, 145.752 167.895, 139.712 170.737 C 127.253 176.599, 117.878 187.694, 114.533 200.535 C 112.353 208.904, 112.353 248.096, 114.533 256.465 C 117.793 268.983, 126.880 280.102, 138.789 286.147 C 144.909 289.253, 146.216 289.524, 156.656 289.856 L 167.921 290.213 168.210 380.857 L 168.500 471.500 170.758 477.079 C 174.856 487.206, 184.730 496.088, 195 498.888 C 198.293 499.786, 209.962 500.032, 238.500 499.807 L 277.500 499.500 283.281 496.571 C 290.412 492.958, 297.280 485.771, 300.820 478.218 L 303.500 472.500 303.785 381.350 L 304.070 290.199 316.809 289.850 C 328.947 289.516, 329.877 289.339, 336.524 286.078 C 345.491 281.680, 353.728 273.394, 358.174 264.302 L 361.500 257.500 361.824 231.174 C 362.199 200.759, 361.381 196.047, 353.916 185.623 C 344.792 172.880, 332.312 167, 314.395 167 L 304 167 304.056 150.250 C 304.122 130.737, 304.993 126.839, 309.500 125.877 C 311.150 125.525, 320.825 125.178, 331 125.106 C 351.125 124.965, 356.395 124.087, 364.899 119.459 C 371.604 115.809, 380.465 106.409, 383.548 99.675 C 387.520 91, 388.207 84.496, 387.840 59.040 L 387.500 35.500 383.765 27.678 C 377.018 13.547, 364.538 4.212, 349.500 2.047 C 339.067 0.546, 275.161 0.879, 266.330 2.481 M 279.910 37.216 C 271.149 37.946, 257.695 41.620, 250.500 45.247 C 243.069 48.993, 231.955 57.269, 226.792 62.901 C 216.239 74.414, 209.697 86.797, 205.982 102.292 C 204.194 109.751, 204.013 114.182, 204.007 150.864 C 204 190.387, 203.955 191.308, 201.836 195.078 C 198.202 201.544, 195.244 202.361, 173.274 202.968 C 147.533 203.680, 149.500 201.567, 149.500 228.505 L 149.500 248.955 152.271 251.727 L 155.042 254.500 174.821 255 C 196.646 255.552, 198.177 255.963, 202.044 262.304 C 203.941 265.415, 203.993 268.138, 203.996 364.750 L 204 464 236 464 L 268 464 268.002 365.250 C 268.003 255.090, 267.551 262.178, 274.898 257.270 C 278.126 255.114, 279.228 255, 296.898 254.994 C 307.129 254.991, 317.141 254.533, 319.147 253.976 C 325.577 252.190, 326 250.598, 326 228.172 L 326 208.273 323.450 205.723 C 320.906 203.179, 320.854 203.173, 300.200 202.837 C 277.470 202.467, 275.268 201.934, 270.605 195.675 C 268.566 192.939, 268.500 191.830, 268.500 160.175 C 268.500 125.354, 268.781 122.741, 273.625 112.510 C 277.580 104.158, 283.094 98.552, 291.315 94.527 C 300.359 90.098, 307.627 89.045, 329.327 89.020 L 346.154 89 349.077 86.077 L 352 83.154 352 64.027 C 352 43.967, 351.330 40.324, 347.287 38.386 C 344.908 37.246, 290.819 36.307, 279.910 37.216" stroke="none" fill='#313a45' fill-rule="evenodd"></path>
</svg>
