<svg xmlns="http://www.w3.org/2000/svg" viewBox="0 0 24 24" height="48" width="48" class="injected-svg" data-src="https://cdn0.erstegroup.com/content/dam/common/brand/icons/sticky-links/fingerprint.svg" xmlns:xlink="http://www.w3.org/1999/xlink"><path d="M3 12.5L3 23.5" fill="none" stroke="#fff" stroke-linecap="round" stroke-linejoin="round"></path><path d="M16.976,2A9,9,0,0,0,3,9.5" fill="none" stroke="#fff" stroke-linecap="round" stroke-linejoin="round"></path><path d="M21,23.5V9.5a8.953,8.953,0,0,0-1.516-5" fill="none" stroke="#fff" stroke-linecap="round" stroke-linejoin="round"></path><path d="M18,16V9.5a6,6,0,0,0-12,0v14" fill="none" stroke="#fff" stroke-linecap="round" stroke-linejoin="round"></path><path d="M18 23.5L18 19" fill="none" stroke="#fff" stroke-linecap="round" stroke-linejoin="round"></path><path d="M9 17.5L9 23.5" fill="none" stroke="#fff" stroke-linecap="round" stroke-linejoin="round"></path><path d="M15,23.5V9.5a3,3,0,0,0-6,0v5" fill="none" stroke="#fff" stroke-linecap="round" stroke-linejoin="round"></path><path d="M12 10L12 18" fill="none" stroke="#fff" stroke-linecap="round" stroke-linejoin="round"></path><path d="M12 21L12 23.5" fill="none" stroke="#fff" stroke-linecap="round" stroke-linejoin="round"></path></svg>
