<svg xmlns="http://www.w3.org/2000/svg" fill="none" viewBox="0 0 14 14" height="48" width="48" class="injected-svg site-scl__img inject-me site-scl__img--theme svg-fill-none"><path stroke='#313a45' stroke-linecap="round" stroke-linejoin="round" d="M0.858276 3.43147C0.858276 2.01044 2.01025 0.858459 3.43129 0.858459H10.2927C11.7137 0.858459 12.8657 2.01044 12.8657 3.43147V10.2928C12.8657 11.7139 11.7137 12.8659 10.2927 12.8659H3.43129C2.01025 12.8659 0.858276 11.7139 0.858276 10.2928V3.43147Z"></path><circle cx="6.862" cy="6.862" r="2.55" stroke='#313a45' stroke-linecap="round" stroke-linejoin="round"></circle><path stroke='#313a45' stroke-linecap="round" stroke-linejoin="round" d="M10.3317 3.47976C10.2844 3.47976 10.2461 3.44144 10.2461 3.39418C10.2461 3.34691 10.2844 3.30859 10.3317 3.30859"></path><path stroke='#313a45' stroke-linecap="round" stroke-linejoin="round" d="M10.3332 3.47976C10.3805 3.47976 10.4188 3.44144 10.4188 3.39418C10.4188 3.34691 10.3805 3.30859 10.3332 3.30859"></path></svg>
