<svg xmlns="http://www.w3.org/2000/svg" viewBox="0 0 500 500" version="1.1" class="injected-svg site-scl__img inject-me site-scl__img--theme svg-fill-none">
	<path d="M 291.071 24.752 C 289.185 25.713, 286.710 27.770, 285.571 29.323 C 283.501 32.144, 283.500 32.239, 282.990 196.323 L 282.481 360.500 280.259 368.500 C 272.157 397.671, 248.264 421.929, 220 429.680 C 210.742 432.218, 184.205 432.210, 175 429.665 C 158.551 425.118, 142.127 414.172, 130.999 400.338 C 123.680 391.241, 118.929 382.110, 115.362 370.288 C 113.042 362.602, 112.708 359.744, 112.695 347.500 C 112.682 336.184, 113.098 331.966, 114.863 325.500 C 119.379 308.949, 126.697 297.142, 140.361 284.358 C 155.236 270.441, 171.141 263.751, 193.288 262.099 C 210.558 260.810, 215 257.121, 215 244.067 C 215 231.488, 210.484 226.877, 197.498 226.195 C 181.012 225.330, 159.404 230.565, 141.681 239.719 C 115.211 253.390, 93.385 278.192, 83.529 305.799 C 73.732 333.242, 74.062 364.494, 84.426 390.835 C 98.909 427.647, 128.993 454.290, 167.926 464.785 C 176.627 467.131, 179.277 467.371, 197 467.421 C 218.486 467.481, 225.098 466.389, 241.492 460.069 C 277.268 446.278, 305.326 414.557, 314.969 377 C 318.657 362.635, 319 351.597, 319 247.342 L 319 145.896 323.868 151.698 C 353.899 187.489, 396.675 208.358, 446.622 211.586 C 457.978 212.319, 462.845 211.301, 467.144 207.294 C 472.319 202.469, 473.483 188.803, 469.207 183.076 C 465.188 177.693, 462.744 176.737, 450.805 175.877 C 428.335 174.258, 415.116 171.202, 398.781 163.849 C 381.915 156.257, 369.360 147.322, 355.970 133.381 C 342.899 119.771, 333.213 104.158, 327.022 86.718 C 321.721 71.786, 320.215 64.029, 319.105 45.937 C 318.229 31.665, 316.985 28.484, 310.954 25.094 C 306.145 22.391, 296.042 22.217, 291.071 24.752" stroke="none" fill='#313a45' fill-rule="evenodd"></path>
</svg>
