<svg xmlns="http://www.w3.org/2000/svg" viewBox="0 0 24 24" height="48" width="48" class="injected-svg site-scl__img inject-me site-scl__img--theme svg-fill-none"><g><path d="M10,9.71,7,4.26A.49.49,0,0,0,6.56,4H1.5a.48.48,0,0,0-.43.25.48.48,0,0,0,0,.49l2.85,5.2L.07,16.24a.52.52,0,0,0,0,.5A.51.51,0,0,0,.5,17H5.57A.49.49,0,0,0,6,16.76l4-6.55A.5.5,0,0,0,10,9.71Z" fill='#313a45'></path><path d="M23.93.25A.48.48,0,0,0,23.5,0H18.13a.52.52,0,0,0-.44.25l-8,14a.48.48,0,0,0,0,.49l5.14,9a.52.52,0,0,0,.44.25h5.37a.48.48,0,0,0,.43-.25.52.52,0,0,0,0-.5l-5-8.77L23.93.75A.5.5,0,0,0,23.93.25Z" fill='#313a45'></path></g></svg>
