<svg xmlns="http://www.w3.org/2000/svg" viewBox="0 0 500 500" version="1.1" class="injected-svg site-scl__img inject-me site-scl__img--theme svg-fill-none">
	<path d="M 79.854 54.106 C 48.939 57.092, 20.391 77.841, 7.765 106.500 C 6.312 109.800, 4.082 116.100, 2.811 120.500 L 0.500 128.500 0.500 250 L 0.500 371.500 2.811 379.500 C 5.433 388.577, 9.240 397.628, 12.905 403.500 C 28.262 428.103, 52.756 443.229, 81.677 445.972 C 96.428 447.371, 403.572 447.371, 418.323 445.972 C 449.415 443.024, 475.581 425.598, 489.718 398.425 C 494.059 390.081, 499 374.890, 499 369.888 C 499 368.300, 499.450 367, 500 367 C 500.661 367, 500.995 326.927, 500.985 248.750 C 500.975 172.037, 500.629 131.027, 500 132 C 499.261 133.144, 499.027 132.756, 499.015 130.362 C 498.990 125.102, 494.132 110.059, 489.722 101.583 C 475.555 74.352, 449.477 56.982, 418.323 54.028 C 405.194 52.783, 92.803 52.855, 79.854 54.106 M 81.489 90.027 C 64.432 92.295, 49.427 103.341, 41.452 119.500 C 39.552 123.350, 37.548 128.924, 36.999 131.886 C 35.641 139.211, 35.641 360.789, 36.999 368.114 C 40.320 386.025, 56.027 403.008, 74.500 408.663 C 80.222 410.415, 88.383 410.500, 250.500 410.500 L 420.500 410.500 427.602 407.902 C 445.414 401.385, 458.369 387.265, 462.460 369.907 C 464.730 360.276, 464.730 139.724, 462.460 130.093 C 458.366 112.725, 444.499 97.721, 427 91.727 L 420.500 89.500 254 89.364 C 162.425 89.289, 84.795 89.588, 81.489 90.027 M 0.484 250 C 0.484 315.175, 0.604 341.838, 0.750 309.250 C 0.896 276.663, 0.896 223.338, 0.750 190.750 C 0.604 158.163, 0.484 184.825, 0.484 250 M 192.662 152.549 C 183.938 155.748, 175.434 164.740, 173.092 173.239 C 172.227 176.382, 171.995 199.152, 172.209 260 L 172.500 342.500 175.438 347.804 C 178.812 353.893, 184.028 358.949, 190.205 362.115 C 196.006 365.088, 207.137 365.823, 213.506 363.652 C 220.915 361.128, 350.628 285.092, 355.080 280.664 C 361.403 274.375, 364.368 267.138, 364.368 258 C 364.368 248.809, 361.443 241.722, 355.045 235.411 C 350.678 231.104, 218.727 153.642, 212.919 151.977 C 208.070 150.586, 197.174 150.894, 192.662 152.549 M 208 257.927 L 208 326.051 210.750 324.610 C 218.889 320.345, 323.541 258.846, 323.762 258.198 C 323.975 257.572, 297.522 241.936, 211.250 191.695 L 208 189.802 208 257.927" stroke="none" fill='#313a45' fill-rule="evenodd"></path>
</svg>
